# xmcd CD database file
#
# Track frame offsets:
#	150
#	18239
#	36781
#	57010
#	75505
#	97219
#	123564
#	141913
#	163748
#	179833
#	203319
#	226561
#	252174
#	272470
#	293726
#	311583
#	334511
#
# Disc length: 4741 seconds
#
# Revision: 2
# Processed by: cddbd v1.5.1PL0 Copyright (c) Steve Scherf et al.
# Submitted via: CDex 1.51
#
DISCID=e1128311
DTITLE=Diana Krall - The Girl In The Other Room - Taiwan
DYEAR=1900
DGENRE=Jazz
TTITLE0=Stop This World
TTITLE1=The Girl In The Other Room
TTITLE2=Temptation
TTITLE3=Almost Blue
TTITLE4=I've Changed My Address
TTITLE5=Love Me Like A Man
TTITLE6=I'm Pulling Through
TTITLE7=Black Crow
TTITLE8=Narrow Day Light 
TTITLE9=Abandoned Masquerade
TTITLE10=I'm Coming Through
TTITLE11=Departure Bay
TTITLE12=S'wonderful
TTITLE13=Love Letters
TTITLE14=I Remember You
TTITLE15=Cry Me A River
TTITLE16=The Look Of Love
EXTD=
EXTT0=
EXTT1=
EXTT2=
EXTT3=
EXTT4=
EXTT5=
EXTT6=
EXTT7=
EXTT8=
EXTT9=
EXTT10=
EXTT11=
EXTT12=
EXTT13=
EXTT14=
EXTT15=
EXTT16=
PLAYORDER=
